<?xml version="1.0" encoding="UTF-8"?>
<svg id="_レイヤー_1" data-name="レイヤー 1" xmlns="http://www.w3.org/2000/svg" viewBox="0 0 1394.8 567.7">
  <defs>
    <style>
      .cls-1 {
        fill: #f19887;
      }
    </style>
  </defs>
  <g>
    <path class="cls-1" d="M259.2,283.57v39.55h-12.85v35.71h-44.6v-95.36c0-18.46,5.03-32.79,15.11-43.01,10.07-10.22,24.23-15.33,42.46-15.33s30.58,4.63,39,13.9c8.42,9.27,12.63,23.57,12.63,42.9v96.9h-44.6v-93.93c0-5.86-.7-9.92-2.09-12.19-1.39-2.27-3.88-3.41-7.47-3.41-6.96,0-10.44,5.2-10.44,15.6v18.68h12.85Z"/>
    <path class="cls-1" d="M337.97,208.87h54.49c32.3,0,48.45,12.71,48.45,38.12,0,12.6-5.53,23.07-16.59,31.42,16.04,6.96,24.06,19.37,24.06,37.24,0,13.7-4.72,24.61-14.17,32.74-4.61,3.88-9.56,6.59-14.83,8.13-5.27,1.54-12.38,2.31-21.31,2.31h-8.46v-38.56h7.58c4.47,0,7.62-.57,9.45-1.7,1.83-1.13,2.75-3.13,2.75-5.99,0-4.83-3.74-7.25-11.21-7.25h-8.57v-39.99c8.2,0,12.3-2.82,12.3-8.46,0-5.2-3.7-7.8-11.1-7.8h-8.24v109.75h-44.6v-149.96Z"/>
    <path class="cls-1" d="M1066.61,208.87v97.23c0,17.14-5.11,30.84-15.33,41.09-10.22,10.25-23.82,15.38-40.81,15.38s-29.87-4.98-38.84-14.94c-8.97-9.96-13.46-24.28-13.46-42.96v-95.8h44.61v95.69c0,9.16,3.26,13.73,9.78,13.73s9.45-4.58,9.45-13.73v-95.69h44.6Z"/>
    <path class="cls-1" d="M1159,251.93v106.9h-44.61v-106.9h-34.17v-43.07h112.83v43.07h-34.06Z"/>
  </g>
  <g>
    <path class="cls-1" d="M57.46,78.44v39.55h-12.85v35.71H0V58.34C0,39.88,5.03,25.54,15.11,15.33,25.18,5.11,39.33,0,57.57,0s30.58,4.63,39,13.9c8.42,9.27,12.63,23.57,12.63,42.9v96.9h-44.6V59.77c0-5.86-.7-9.92-2.09-12.19-1.39-2.27-3.88-3.41-7.47-3.41-6.96,0-10.44,5.2-10.44,15.6v18.68h12.85Z"/>
    <path class="cls-1" d="M133.15,3.74h44.6v89.1c0,6.96,1.12,11.59,3.35,13.9,2.23,2.31,6.65,3.46,13.24,3.46h2.31v43.51h-11.87c-16.26,0-28.93-4.74-38.01-14.23-9.08-9.48-13.62-22.65-13.62-39.5V3.74Z"/>
    <path class="cls-1" d="M208.63,3.74h44.6v89.1c0,6.96,1.12,11.59,3.35,13.9,2.23,2.31,6.65,3.46,13.24,3.46h2.31v43.51h-11.87c-16.26,0-28.93-4.74-38.01-14.23-9.08-9.48-13.62-22.65-13.62-39.5V3.74Z"/>
    <path class="cls-1" d="M1126.19,567.7v-108.11c0-13.4,4.07-24.35,12.2-32.85,8.13-8.49,18.68-12.74,31.64-12.74,15.38,0,27.21,7.07,35.49,21.21,5.05-7.62,10.47-13.05,16.26-16.31,5.78-3.26,12.93-4.89,21.42-4.89,13.48,0,23.8,4.25,30.98,12.74,7.18,8.5,10.77,20.73,10.77,36.7v104.26h-44.6v-97.56c0-4.83-.38-8.04-1.15-9.61-.77-1.57-2.33-2.36-4.67-2.36-4.39,0-6.59,3.73-6.59,11.21v98.33h-44.61v-97.56c0-4.76-.4-7.95-1.21-9.56-.81-1.61-2.38-2.42-4.72-2.42-4.39,0-6.59,3.99-6.59,11.97v97.56h-44.61Z"/>
    <path class="cls-1" d="M1391.94,476.07v33.4h-29.11c-3.96,0-6.76.59-8.4,1.76-1.65,1.17-2.47,3.15-2.47,5.93,0,3.15.84,5.22,2.53,6.21,1.68.99,5.13,1.48,10.33,1.48h29.99v42.85h-35.05c-16.48,0-29.08-3.94-37.79-11.81-8.72-7.87-13.07-19.24-13.07-34.11v-58.78c0-14.35,4.12-25.49,12.36-33.4,8.24-7.91,19.83-11.87,34.77-11.87h38.78v43.07h-28.46c-7.69,0-11.54,2.49-11.54,7.47,0,2.93.91,4.96,2.75,6.1,1.83,1.14,5.09,1.7,9.78,1.7h24.61Z"/>
  </g>
</svg>